<?xml version="1.0" encoding="utf-8"?>
<!-- Generator: Adobe Illustrator 24.2.1, SVG Export Plug-In . SVG Version: 6.00 Build 0)  -->
<svg version="1.1" id="Layer_1" xmlns="http://www.w3.org/2000/svg" xmlns:xlink="http://www.w3.org/1999/xlink" x="0px" y="0px"
	 viewBox="0 0 240 240" style="enable-background:new 0 0 240 240;" xml:space="preserve">
<style type="text/css">
	.st0{fill:#BA7C00;}
	.st1{fill:#D9AC59;}
	.st2{fill:#4B4A59;}
</style>
<g>
	<rect x="230.18" y="132.48" class="st0" width="7.16" height="7.16"/>
	<polygon class="st1" points="237.33,132.48 230.18,132.48 230.18,139.64 237.33,139.64 237.33,132.48 	"/>
</g>
<polygon class="st1" points="218.46,139.64 191.27,104.31 196.94,99.94 223.11,133.97 "/>
<g>
	<polygon class="st2" points="225.62,139.64 218.46,139.64 218.46,107.52 225.62,98.21 	"/>
</g>
<g>
	<rect x="189.78" y="99.94" class="st2" width="7.16" height="39.73"/>
</g>
<path class="st2" d="M167.37,107.04c7.01,0,12.71,5.7,12.71,12.71c0,7.01-5.7,12.71-12.71,12.71c-7.01,0-12.71-5.7-12.71-12.71
	C154.66,112.74,160.36,107.04,167.37,107.04 M167.37,99.89c-10.97,0-19.86,8.89-19.86,19.86s8.89,19.86,19.86,19.86
	c10.97,0,19.86-8.89,19.86-19.86S178.34,99.89,167.37,99.89L167.37,99.89z"/>
<path class="st2" d="M138.57,139.67l-12.52-12.9h-0.88v12.9h-7.16V99.98l15.69-0.02c7.4,0,13.41,6.01,13.41,13.41
	c0,6.66-4.88,12.2-11.26,13.23l12.66,13.07H138.57z M125.17,119.61h8.54c3.45,0,6.25-2.8,6.25-6.25c0-3.45-2.8-6.25-6.25-6.25
	l-8.54,0.01V119.61z"/>
<g>
	<g>
		<polygon class="st2" points="83.83,139.67 83.83,99.97 90.99,99.97 90.99,130.33 		"/>
	</g>
	<g>
		<g>
			<polygon class="st2" points="83.83,141.17 83.83,129.42 106.48,99.97 115.54,99.94 			"/>
		</g>
	</g>
</g>
<polygon class="st1" points="96.29,126.32 106.55,139.69 115.6,139.68 100.81,120.45 "/>
<path class="st2" d="M71.65,139.64l-12.52-12.9h-0.88v12.9h-7.16V99.94l15.69-0.02c7.4,0,13.41,6.01,13.41,13.41
	c0,6.66-4.88,12.2-11.26,13.23l12.66,13.07H71.65z M58.25,119.58h8.54c3.45,0,6.25-2.8,6.25-6.25s-2.8-6.25-6.25-6.25l-8.54,0.01
	V119.58z"/>
<g>
	<polygon class="st2" points="46.36,139.64 39.2,139.64 39.19,107.65 46.35,98.35 	"/>
</g>
<g>
	<g>
		<polygon class="st2" points="3,139.67 3,99.97 10.16,99.97 10.16,130.33 		"/>
	</g>
	<g>
		<g>
			<polygon class="st2" points="3,141.17 3,129.42 25.65,99.97 34.7,99.94 			"/>
		</g>
	</g>
</g>
<polygon class="st1" points="15.46,126.32 25.71,139.69 34.76,139.68 19.98,120.45 "/>
</svg>
