<?xml version="1.0" encoding="utf-8"?>
<!-- Generator: Adobe Illustrator 24.2.1, SVG Export Plug-In . SVG Version: 6.00 Build 0)  -->
<svg version="1.1" id="Layer_1" xmlns="http://www.w3.org/2000/svg" xmlns:xlink="http://www.w3.org/1999/xlink" x="0px" y="0px"
	 viewBox="0 0 225.1 43.7" style="enable-background:new 0 0 225.1 43.7;" xml:space="preserve">
<style type="text/css">
	.st0{fill:#D9AC59;}
	.st1{fill:#4B4A59;}
</style>
<g>
	<polygon class="st0" points="216.7,41.8 189.5,6.5 195.2,2.1 221.4,36.1 	"/>
	<g>
		<polygon class="st1" points="223.9,41.8 216.7,41.8 216.7,9.7 223.9,0.4 		"/>
	</g>
	<g>
		<rect x="188" y="2.1" class="st1" width="7.2" height="39.7"/>
	</g>
	<path class="st1" d="M165.6,9.2c7,0,12.7,5.7,12.7,12.7s-5.7,12.7-12.7,12.7c-7,0-12.7-5.7-12.7-12.7
		C152.9,14.9,158.6,9.2,165.6,9.2 M165.6,2c-11,0-19.9,8.9-19.9,19.9s8.9,19.9,19.9,19.9s19.9-8.9,19.9-19.9S176.6,2,165.6,2
		L165.6,2z"/>
	<path class="st1" d="M136.8,41.8l-12.5-12.9h-0.9v12.9h-7.2V2.1l15.7,0c7.4,0,13.4,6,13.4,13.4c0,6.7-4.9,12.2-11.3,13.2l12.7,13.1
		L136.8,41.8L136.8,41.8z M123.4,21.8h8.5c3.4,0,6.2-2.8,6.2-6.2s-2.8-6.2-6.2-6.2l-8.5,0C123.4,9.3,123.4,21.8,123.4,21.8z"/>
	<g>
		<g>
			<polygon class="st1" points="82.1,41.8 82.1,2.1 89.2,2.1 89.2,32.5 			"/>
		</g>
		<g>
			<g>
				<polygon class="st1" points="82.1,43.3 82.1,31.6 104.7,2.1 113.8,2.1 				"/>
			</g>
		</g>
	</g>
	<polygon class="st0" points="94.5,28.5 104.8,41.8 113.9,41.8 99.1,22.6 	"/>
	<path class="st1" d="M69.9,41.8L57.4,28.9h-0.9v12.9h-7.2V2.1l15.7,0c7.4,0,13.4,6,13.4,13.4c0,6.7-4.9,12.2-11.3,13.2l12.7,13.1
		L69.9,41.8L69.9,41.8z M56.5,21.7H65c3.4,0,6.2-2.8,6.2-6.2S68.5,9.2,65,9.2l-8.5,0V21.7z"/>
	<g>
		<polygon class="st1" points="44.6,41.8 37.5,41.8 37.4,9.8 44.6,0.5 		"/>
	</g>
	<g>
		<g>
			<polygon class="st1" points="1.3,41.8 1.3,2.1 8.4,2.1 8.4,32.5 			"/>
		</g>
		<g>
			<g>
				<polygon class="st1" points="1.3,43.3 1.3,31.6 23.9,2.1 33,2.1 				"/>
			</g>
		</g>
	</g>
	<polygon class="st0" points="13.7,28.5 24,41.8 33,41.8 18.2,22.6 	"/>
</g>
</svg>
